<svg xmlns="http://www.w3.org/2000/svg" width="1600" height="1240" font-family="DejaVu Sans, sans-serif"><g transform="translate(0 0)"><rect width="800" height="620" fill="#191d1b"/><svg x="16" y="16" width="768" height="480" viewBox="0 0 2560 1664"><rect width="2560" height="1664" fill="#191d1b"/><circle cx="1850" cy="720" r="290" fill="#303a33"/><path d="M0 1350 Q700 1080 1330 1290 T2560 1130 V1664 H0Z" fill="#222824"/><path d="M0 1450 Q800 1190 1530 1410 T2560 1280 V1664 H0Z" fill="#191d1b"/></svg><rect x="34" y="30" width="732" height="25" rx="4" fill="#222824"/><text x="48" y="48" fill="#b1c59e" font-size="13">OMA    1   2   3</text><text x="630" y="48" fill="#e0e5dc" font-size="13">Sat  09:41</text><rect x="62" y="142" width="425" height="235" rx="8" fill="#191d1b" stroke="#b1c59e"/><text x="85" y="182" fill="#a6b2a7" font-size="14">~/workspace</text><text x="85" y="218" fill="#b1c59e" font-size="17">❯ a little room to think</text><text x="85" y="255" fill="#e0e5dc" font-size="15">Clear text. Quiet surroundings.</text><text x="85" y="290" fill="#9eb9c5" font-size="14">const balance = 'less, but enough';</text><text x="34" y="538" fill="#e0e5dc" font-size="27">Moss Stone</text><text x="34" y="573" fill="#a6b2a7" font-size="16">Charcoal, soft sage, and warm stone.</text></g><g transform="translate(800 0)"><rect width="800" height="620" fill="#191f26"/><svg x="16" y="16" width="768" height="480" viewBox="0 0 2560 1664"><rect width="2560" height="1664" fill="#191f26"/><path d="M1660 1120 V690 a270 270 0 0 1 540 0 V1120Z" fill="#232c35"/><path d="M1740 1120 V690 a190 190 0 0 1 380 0 V1120Z" fill="#303d49"/><path d="M0 1220 H2560" stroke="#4a5d6b" stroke-opacity=".35" stroke-width="2"/></svg><rect x="34" y="30" width="732" height="25" rx="4" fill="#232c35"/><text x="48" y="48" fill="#a2c5d4" font-size="13">OMA    1   2   3</text><text x="630" y="48" fill="#e0e6eb" font-size="13">Sat  09:41</text><rect x="62" y="142" width="425" height="235" rx="8" fill="#191f26" stroke="#a2c5d4"/><text x="85" y="182" fill="#a4b3bf" font-size="14">~/workspace</text><text x="85" y="218" fill="#a2c5d4" font-size="17">❯ a little room to think</text><text x="85" y="255" fill="#e0e6eb" font-size="15">Clear text. Quiet surroundings.</text><text x="85" y="290" fill="#a2c5d4" font-size="14">const balance = 'less, but enough';</text><text x="34" y="538" fill="#e0e6eb" font-size="27">Slate Tide</text><text x="34" y="573" fill="#a4b3bf" font-size="16">Blue slate with a pale sea-glass accent.</text></g><g transform="translate(0 620)"><rect width="800" height="620" fill="#f2eee5"/><svg x="16" y="16" width="768" height="480" viewBox="0 0 2560 1664"><rect width="2560" height="1664" fill="#f2eee5"/><circle cx="1880" cy="740" r="280" fill="#e8e2d7"/><path d="M1630 1090 H2200 V900 Q1950 780 1630 900Z" fill="#ddd4c6"/><path d="M0 1320 Q900 1200 1500 1340 T2560 1260 V1664 H0Z" fill="#e8e2d7"/></svg><rect x="34" y="30" width="732" height="25" rx="4" fill="#e8e2d7"/><text x="48" y="48" fill="#884c3b" font-size="13">OMA    1   2   3</text><text x="630" y="48" fill="#383b35" font-size="13">Sat  09:41</text><rect x="62" y="142" width="425" height="235" rx="8" fill="#f2eee5" stroke="#884c3b"/><text x="85" y="182" fill="#595d54" font-size="14">~/workspace</text><text x="85" y="218" fill="#884c3b" font-size="17">❯ a little room to think</text><text x="85" y="255" fill="#383b35" font-size="15">Clear text. Quiet surroundings.</text><text x="85" y="290" fill="#3c6079" font-size="14">const balance = 'less, but enough';</text><text x="34" y="538" fill="#383b35" font-size="27">Clay Linen</text><text x="34" y="573" fill="#595d54" font-size="16">Warm paper, dark ink, and quiet terracotta.</text></g><g transform="translate(800 620)"><rect width="800" height="620" fill="#211e24"/><svg x="16" y="16" width="768" height="480" viewBox="0 0 2560 1664"><rect width="2560" height="1664" fill="#211e24"/><circle cx="1870" cy="790" r="310" fill="#3c3542"/><circle cx="1990" cy="690" r="290" fill="#211e24"/><path d="M0 1390 Q900 1110 1600 1390 T2560 1230 V1664 H0Z" fill="#2b2730"/></svg><rect x="34" y="30" width="732" height="25" rx="4" fill="#2b2730"/><text x="48" y="48" fill="#c5b0ce" font-size="13">OMA    1   2   3</text><text x="630" y="48" fill="#e8e0e9" font-size="13">Sat  09:41</text><rect x="62" y="142" width="425" height="235" rx="8" fill="#211e24" stroke="#c5b0ce"/><text x="85" y="182" fill="#b9acbf" font-size="14">~/workspace</text><text x="85" y="218" fill="#c5b0ce" font-size="17">❯ a little room to think</text><text x="85" y="255" fill="#e8e0e9" font-size="15">Clear text. Quiet surroundings.</text><text x="85" y="290" fill="#a9bbd0" font-size="14">const balance = 'less, but enough';</text><text x="34" y="538" fill="#e8e0e9" font-size="27">Plum Ash</text><text x="34" y="573" fill="#b9acbf" font-size="16">Smoky neutrals with a restrained lilac accent.</text></g></svg>